<svg xmlns="http://www.w3.org/2000/svg" viewBox="0 0 900 506" role="img" aria-label="Bee Creative craft event"><rect width="900" height="506" fill="#fff7d8"/><circle cx="720" cy="92" r="56" fill="#f4d36b" opacity=".7"/><path d="M125 360c70-96 146-124 228-83 43 21 71 52 114 49 66-5 86-82 158-95 56-10 105 24 151 79" fill="none" stroke="#d7a72f" stroke-width="16" stroke-linecap="round" opacity=".55"/><g transform="translate(250 116)"><ellipse cx="145" cy="110" rx="112" ry="78" fill="#f6c84f" stroke="#17283f" stroke-width="10"/><path d="M74 55c22 33 31 91 13 133M144 34c26 46 26 103 0 153M214 62c-18 42-17 78 5 113" fill="none" stroke="#17283f" stroke-width="14" stroke-linecap="round"/><circle cx="250" cy="101" r="14" fill="#17283f"/><path d="M46 89C-8 45-27 7 5-17c37-27 86 9 112 74M71 132C14 171-32 172-43 136c-13-42 35-75 106-70" fill="#dff0ff" stroke="#17283f" stroke-width="8" opacity=".92"/><path d="M256 112l50 24-51 22" fill="none" stroke="#17283f" stroke-width="8" stroke-linecap="round" stroke-linejoin="round"/></g><g fill="#17283f" opacity=".82"><rect x="154" y="172" width="36" height="154" rx="18" transform="rotate(-16 154 172)"/><rect x="652" y="178" width="38" height="132" rx="19" transform="rotate(20 652 178)"/><circle cx="160" cy="156" r="24"/><circle cx="696" cy="153" r="24"/></g><g fill="#fff" stroke="#17283f" stroke-width="8"><rect x="578" y="326" width="130" height="52" rx="12"/><rect x="592" y="300" width="102" height="40" rx="10"/></g><text x="450" y="442" text-anchor="middle" font-family="Inter,Arial,sans-serif" font-weight="900" font-size="54" fill="#17283f">Bee Creative</text></svg>
