<svg xmlns="http://www.w3.org/2000/svg" viewBox="0 0 800 450" role="img" aria-label="Sealed by God VBS illustration">
  <defs>
    <linearGradient id="bg" x1="0" y1="0" x2="1" y2="1"><stop offset="0" stop-color="#eaf4ff"/><stop offset="1" stop-color="#fff3d1"/></linearGradient>
    <filter id="shadow" x="-20%" y="-20%" width="140%" height="140%"><feDropShadow dx="0" dy="10" stdDeviation="12" flood-color="#17283f" flood-opacity=".16"/></filter>
  </defs>
  <rect width="800" height="450" fill="url(#bg)"/>
  <circle cx="645" cy="95" r="54" fill="#d7a72f" opacity=".28"/>
  <circle cx="118" cy="342" r="78" fill="#2e6f9f" opacity=".11"/>
  <g filter="url(#shadow)">
    <rect x="170" y="98" width="460" height="250" rx="30" fill="#fff" stroke="#dfe7f1" stroke-width="3"/>
    <rect x="206" y="132" width="388" height="52" rx="16" fill="#17283f"/>
    <text x="400" y="166" font-family="Arial, sans-serif" font-size="28" font-weight="800" text-anchor="middle" fill="#fff">SEALED BY GOD</text>
    <text x="400" y="220" font-family="Arial, sans-serif" font-size="26" font-weight="700" text-anchor="middle" fill="#17283f">VBS 2026</text>
    <text x="400" y="258" font-family="Arial, sans-serif" font-size="20" font-weight="700" text-anchor="middle" fill="#2e6f9f">Ephesians 1:13</text>
    <g transform="translate(400 314)">
      <circle r="54" fill="#b21f2d"/>
      <circle r="43" fill="#d94b57"/>
      <path d="M-19 -1l14 14 29-32" fill="none" stroke="#fff" stroke-width="10" stroke-linecap="round" stroke-linejoin="round"/>
    </g>
  </g>
  <g fill="#d7a72f" opacity=".95">
    <path d="M84 104l12 26 28 4-20 19 5 28-25-13-25 13 5-28-20-19 28-4z"/>
    <path d="M692 306l9 18 20 3-14 14 3 20-18-9-18 9 3-20-14-14 20-3z"/>
  </g>
</svg>
